<svg width="24" height="24" viewBox="0 0 24 24" fill="none" xmlns="http://www.w3.org/2000/svg">
    <path
        d="M15.7333 17.6L17.6 15.7333L13.3333 11.4667V5.33333H10.6667V12.5333L15.7333 17.6ZM12 24C10.3333 24 8.77222 23.6833 7.31667 23.05C5.86111 22.4167 4.59444 21.5611 3.51667 20.4833C2.43889 19.4056 1.58333 18.1389 0.95 16.6833C0.316667 15.2278 0 13.6667 0 12C0 10.3333 0.316667 8.77222 0.95 7.31667C1.58333 5.86111 2.43889 4.59444 3.51667 3.51667C4.59444 2.43889 5.86111 1.58333 7.31667 0.95C8.77222 0.316667 10.3333 0 12 0C13.6667 0 15.2278 0.316667 16.6833 0.95C18.1389 1.58333 19.4056 2.43889 20.4833 3.51667C21.5611 4.59444 22.4167 5.86111 23.05 7.31667C23.6833 8.77222 24 10.3333 24 12C24 13.6667 23.6833 15.2278 23.05 16.6833C22.4167 18.1389 21.5611 19.4056 20.4833 20.4833C19.4056 21.5611 18.1389 22.4167 16.6833 23.05C15.2278 23.6833 13.6667 24 12 24ZM12 21.3333C14.6 21.3333 16.8056 20.4278 18.6167 18.6167C20.4278 16.8056 21.3333 14.6 21.3333 12C21.3333 9.4 20.4278 7.19444 18.6167 5.38333C16.8056 3.57222 14.6 2.66667 12 2.66667C9.4 2.66667 7.19444 3.57222 5.38333 5.38333C3.57222 7.19444 2.66667 9.4 2.66667 12C2.66667 14.6 3.57222 16.8056 5.38333 18.6167C7.19444 20.4278 9.4 21.3333 12 21.3333Z"
        fill="white" />
</svg>