<svg width="230" height="37" viewBox="0 0 230 37" fill="none" xmlns="http://www.w3.org/2000/svg">
    <path
        d="M44.914 29V8.7H48.742V29H44.914ZM52.6765 29V14.616H56.2725V16.182H56.7945C57.0458 15.6987 57.4615 15.283 58.0415 14.935C58.6215 14.5677 59.3852 14.384 60.3325 14.384C61.3572 14.384 62.1788 14.587 62.7975 14.993C63.4162 15.3797 63.8898 15.892 64.2185 16.53H64.7405C65.0692 15.9113 65.5332 15.399 66.1325 14.993C66.7318 14.587 67.5825 14.384 68.6845 14.384C69.5738 14.384 70.3762 14.5773 71.0915 14.964C71.8262 15.3313 72.4062 15.9017 72.8315 16.675C73.2762 17.429 73.4985 18.386 73.4985 19.546V29H69.8445V19.807C69.8445 19.0143 69.6415 18.4247 69.2355 18.038C68.8295 17.632 68.2592 17.429 67.5245 17.429C66.6932 17.429 66.0455 17.6997 65.5815 18.241C65.1368 18.763 64.9145 19.517 64.9145 20.503V29H61.2605V19.807C61.2605 19.0143 61.0575 18.4247 60.6515 18.038C60.2455 17.632 59.6752 17.429 58.9405 17.429C58.1092 17.429 57.4615 17.6997 56.9975 18.241C56.5528 18.763 56.3305 19.517 56.3305 20.503V29H52.6765ZM81.8944 29.406C80.8698 29.406 79.9514 29.232 79.1394 28.884C78.3274 28.5167 77.6798 27.9947 77.1964 27.318C76.7324 26.622 76.5004 25.781 76.5004 24.795C76.5004 23.809 76.7324 22.9873 77.1964 22.33C77.6798 21.6533 78.3371 21.1507 79.1684 20.822C80.0191 20.474 80.9858 20.3 82.0684 20.3H86.0124V19.488C86.0124 18.8113 85.7998 18.2603 85.3744 17.835C84.9491 17.3903 84.2724 17.168 83.3444 17.168C82.4358 17.168 81.7591 17.3807 81.3144 17.806C80.8698 18.212 80.5798 18.7437 80.4444 19.401L77.0804 18.27C77.3124 17.5353 77.6798 16.8683 78.1824 16.269C78.7044 15.6503 79.3908 15.1573 80.2414 14.79C81.1114 14.4033 82.1651 14.21 83.4024 14.21C85.2971 14.21 86.7954 14.6837 87.8974 15.631C88.9994 16.5783 89.5504 17.951 89.5504 19.749V25.114C89.5504 25.694 89.8211 25.984 90.3624 25.984H91.5224V29H89.0864C88.3711 29 87.7814 28.826 87.3174 28.478C86.8534 28.13 86.6214 27.666 86.6214 27.086V27.057H86.0704C85.9931 27.289 85.8191 27.5983 85.5484 27.985C85.2778 28.3523 84.8524 28.681 84.2724 28.971C83.6924 29.261 82.8998 29.406 81.8944 29.406ZM82.5324 26.448C83.5571 26.448 84.3884 26.1677 85.0264 25.607C85.6838 25.027 86.0124 24.2633 86.0124 23.316V23.026H82.3294C81.6528 23.026 81.1211 23.171 80.7344 23.461C80.3478 23.751 80.1544 24.157 80.1544 24.679C80.1544 25.201 80.3574 25.6263 80.7634 25.955C81.1694 26.2837 81.7591 26.448 82.5324 26.448ZM93.2149 21.866V21.402C93.2149 19.894 93.5145 18.6083 94.1139 17.545C94.7132 16.4623 95.5059 15.6407 96.4919 15.08C97.4972 14.5 98.5895 14.21 99.7689 14.21C101.084 14.21 102.079 14.442 102.756 14.906C103.433 15.37 103.926 15.8533 104.235 16.356H104.757V14.616H108.353V31.552C108.353 32.538 108.063 33.321 107.483 33.901C106.903 34.5003 106.13 34.8 105.163 34.8H95.5349V31.61H103.887C104.428 31.61 104.699 31.32 104.699 30.74V26.999H104.177C103.984 27.3083 103.713 27.6273 103.365 27.956C103.017 28.2653 102.553 28.5263 101.973 28.739C101.393 28.9517 100.658 29.058 99.7689 29.058C98.5895 29.058 97.4972 28.7777 96.4919 28.217C95.5059 27.637 94.7132 26.8153 94.1139 25.752C93.5145 24.6693 93.2149 23.374 93.2149 21.866ZM100.813 25.868C101.934 25.868 102.872 25.5103 103.626 24.795C104.38 24.0797 104.757 23.0743 104.757 21.779V21.489C104.757 20.1743 104.38 19.169 103.626 18.473C102.891 17.7577 101.954 17.4 100.813 17.4C99.6915 17.4 98.7539 17.7577 97.9999 18.473C97.2459 19.169 96.8689 20.1743 96.8689 21.489V21.779C96.8689 23.0743 97.2459 24.0797 97.9999 24.795C98.7539 25.5103 99.6915 25.868 100.813 25.868ZM118.958 29.406C117.527 29.406 116.261 29.1063 115.159 28.507C114.076 27.8883 113.226 27.028 112.607 25.926C112.008 24.8047 111.708 23.49 111.708 21.982V21.634C111.708 20.126 112.008 18.821 112.607 17.719C113.206 16.5977 114.047 15.7373 115.13 15.138C116.213 14.5193 117.469 14.21 118.9 14.21C120.311 14.21 121.539 14.529 122.583 15.167C123.627 15.7857 124.439 16.6557 125.019 17.777C125.599 18.879 125.889 20.1647 125.889 21.634V22.881H115.42C115.459 23.867 115.826 24.6693 116.522 25.288C117.218 25.9067 118.069 26.216 119.074 26.216C120.099 26.216 120.853 25.9937 121.336 25.549C121.819 25.1043 122.187 24.6113 122.438 24.07L125.425 25.636C125.154 26.1387 124.758 26.6897 124.236 27.289C123.733 27.869 123.057 28.3717 122.206 28.797C121.355 29.203 120.273 29.406 118.958 29.406ZM115.449 20.155H122.177C122.1 19.3237 121.761 18.6567 121.162 18.154C120.582 17.6513 119.818 17.4 118.871 17.4C117.885 17.4 117.102 17.6513 116.522 18.154C115.942 18.6567 115.584 19.3237 115.449 20.155ZM136.043 29.406C134.651 29.406 133.385 29.0967 132.244 28.478C131.123 27.84 130.224 26.9217 129.547 25.723C128.89 24.505 128.561 23.026 128.561 21.286V16.414C128.561 13.804 129.296 11.803 130.765 10.411C132.235 8.99967 134.226 8.294 136.739 8.294C139.233 8.294 141.157 8.961 142.51 10.295C143.883 11.6097 144.569 13.398 144.569 15.66V15.776H140.799V15.544C140.799 14.8287 140.645 14.181 140.335 13.601C140.045 13.021 139.601 12.5667 139.001 12.238C138.402 11.89 137.648 11.716 136.739 11.716C135.386 11.716 134.323 12.1317 133.549 12.963C132.776 13.7943 132.389 14.9253 132.389 16.356V21.344C132.389 22.7553 132.776 23.896 133.549 24.766C134.323 25.6167 135.405 26.042 136.797 26.042C138.189 26.042 139.204 25.6747 139.842 24.94C140.48 24.2053 140.799 23.2773 140.799 22.156V21.866H135.985V18.618H144.569V29H141.031V27.057H140.509C140.374 27.3857 140.152 27.7337 139.842 28.101C139.552 28.4683 139.108 28.7777 138.508 29.029C137.909 29.2803 137.087 29.406 136.043 29.406ZM148.343 29V14.616H151.939V16.24H152.461C152.673 15.66 153.021 15.2347 153.505 14.964C154.007 14.6933 154.587 14.558 155.245 14.558H156.985V17.806H155.187C154.259 17.806 153.495 18.0573 152.896 18.56C152.296 19.0433 151.997 19.7973 151.997 20.822V29H148.343ZM166.175 29.406C164.744 29.406 163.458 29.116 162.318 28.536C161.177 27.956 160.278 27.115 159.621 26.013C158.963 24.911 158.635 23.5867 158.635 22.04V21.576C158.635 20.0293 158.963 18.705 159.621 17.603C160.278 16.501 161.177 15.66 162.318 15.08C163.458 14.5 164.744 14.21 166.175 14.21C167.605 14.21 168.891 14.5 170.032 15.08C171.172 15.66 172.071 16.501 172.729 17.603C173.386 18.705 173.715 20.0293 173.715 21.576V22.04C173.715 23.5867 173.386 24.911 172.729 26.013C172.071 27.115 171.172 27.956 170.032 28.536C168.891 29.116 167.605 29.406 166.175 29.406ZM166.175 26.158C167.296 26.158 168.224 25.8003 168.959 25.085C169.693 24.3503 170.061 23.3063 170.061 21.953V21.663C170.061 20.3097 169.693 19.2753 168.959 18.56C168.243 17.8253 167.315 17.458 166.175 17.458C165.053 17.458 164.125 17.8253 163.391 18.56C162.656 19.2753 162.289 20.3097 162.289 21.663V21.953C162.289 23.3063 162.656 24.3503 163.391 25.085C164.125 25.8003 165.053 26.158 166.175 26.158ZM182.569 29.232C181.447 29.232 180.461 28.9807 179.611 28.478C178.779 27.956 178.132 27.2407 177.668 26.332C177.204 25.4233 176.972 24.3793 176.972 23.2V14.616H180.626V22.91C180.626 23.9927 180.887 24.8047 181.409 25.346C181.95 25.8873 182.714 26.158 183.7 26.158C184.821 26.158 185.691 25.7907 186.31 25.056C186.928 24.302 187.238 23.258 187.238 21.924V14.616H190.892V29H187.296V27.115H186.774C186.542 27.5983 186.107 28.072 185.469 28.536C184.831 29 183.864 29.232 182.569 29.232ZM194.958 29V14.616H198.554V16.501H199.076C199.308 15.9983 199.743 15.5247 200.381 15.08C201.019 14.616 201.985 14.384 203.281 14.384C204.402 14.384 205.378 14.645 206.21 15.167C207.06 15.6697 207.718 16.3753 208.182 17.284C208.646 18.1733 208.878 19.2173 208.878 20.416V29H205.224V20.706C205.224 19.6233 204.953 18.8113 204.412 18.27C203.89 17.7287 203.136 17.458 202.15 17.458C201.028 17.458 200.158 17.835 199.54 18.589C198.921 19.3237 198.612 20.358 198.612 21.692V29H194.958ZM218.628 29.406C217.487 29.406 216.414 29.1257 215.409 28.565C214.423 27.985 213.63 27.144 213.031 26.042C212.432 24.94 212.132 23.606 212.132 22.04V21.576C212.132 20.01 212.432 18.676 213.031 17.574C213.63 16.472 214.423 15.6407 215.409 15.08C216.395 14.5 217.468 14.21 218.628 14.21C219.498 14.21 220.223 14.3163 220.803 14.529C221.402 14.7223 221.886 14.9737 222.253 15.283C222.62 15.5923 222.901 15.921 223.094 16.269H223.616V8.7H227.27V29H223.674V27.26H223.152C222.823 27.8013 222.311 28.2943 221.615 28.739C220.938 29.1837 219.943 29.406 218.628 29.406ZM219.73 26.216C220.851 26.216 221.789 25.8583 222.543 25.143C223.297 24.4083 223.674 23.345 223.674 21.953V21.663C223.674 20.271 223.297 19.2173 222.543 18.502C221.808 17.7673 220.871 17.4 219.73 17.4C218.609 17.4 217.671 17.7673 216.917 18.502C216.163 19.2173 215.786 20.271 215.786 21.663V21.953C215.786 23.345 216.163 24.4083 216.917 25.143C217.671 25.8583 218.609 26.216 219.73 26.216Z"
        fill="#009997" />
    <path
        d="M15.7143 6H30V22C30 22.7566 29.8824 23.4857 29.6644 24.1701C28.7458 27.0539 26.0454 29.1429 22.8571 29.1429C18.9123 29.1429 15.7143 25.9449 15.7143 22V6Z"
        fill="#009997" />
    <path fill-rule="evenodd" clip-rule="evenodd"
        d="M12 6H0V21C0 29.2843 6.71573 36 15 36C18.5182 36 21.7535 34.7888 24.3117 32.7606C23.8359 32.8243 23.3504 32.8571 22.8571 32.8571C16.8609 32.8571 12 27.9962 12 22V6ZM30 6H15.7143V22C15.7143 25.9449 18.9123 29.1429 22.8571 29.1429C26.0454 29.1429 28.7458 27.0539 29.6644 24.1701C29.8824 23.4857 30 22.7566 30 22V21V6Z"
        fill="#009997" />
</svg>